# xmcd
#
# Track frame offsets: 
#        150
#        8687
#        23700
#        38412
#        41650
#        54600
#        82262
#        96712
#        100150
#        121575
#        132975
#        151250
#        164875
#        173550
#        198137
#        213025
#        225247
#        246847
#        262659
#        299601
#        324366
#
# Disc length: 4738 seconds
#
# Revision: 1
# Processed by: cddbd v1.5.1PL2 Copyright (c) Steve Scherf et al.
# Submitted via: ExactAudioCopy v0.95a5
#
DISCID=0f128015
DTITLE=Robotiko Rejekto - The Cyper Space
DYEAR=1900
DGENRE=Techno-Industrial
TTITLE0=Transformation Synthesis 
TTITLE1=Cyper Space 
TTITLE2=Injection (Robotiko Part III)
TTITLE3=Dedication To Alexander M.
TTITLE4=Rejekto
TTITLE5=You Can't Escape 
TTITLE6=Now Saving 
TTITLE7=Interpolation
TTITLE8=Moonbase 18 
TTITLE9=Umsturz Jetzt 
TTITLE10=The Art Of Sampling 
TTITLE11=Confusion
TTITLE12=SMPTE
TTITLE13=I Don't 
TTITLE14=Dynamic
TTITLE15=Communication 
TTITLE16=Umsturz Jetzt (Razormaid Mix)
TTITLE17=Rejekto (Single Mix)
TTITLE18=Rejekto (Presentation '93 Mix)
TTITLE19=Rejekto (2002 Retro Mix)
TTITLE20=Rejekto (2002 Club Mix)
EXTD=
EXTT0=
EXTT1=
EXTT2=
EXTT3=
EXTT4=
EXTT5=
EXTT6=
EXTT7=
EXTT8=
EXTT9=
EXTT10=
EXTT11=
EXTT12=
EXTT13=
EXTT14=
EXTT15=
EXTT16=
EXTT17=
EXTT18=
EXTT19=
EXTT20=
PLAYORDER=
